<svg width="24" height="24" viewBox="0 0 24 24" fill="none" xmlns="http://www.w3.org/2000/svg">
<path d="M15.1992 5.10769V4M18.1037 5.89095L18.8857 5.10769M18.8933 8.8H19.9992" stroke="#141B34" stroke-width="1.5" stroke-linecap="round" stroke-linejoin="round"/>
<path d="M20 12C20 15.7712 20 17.6569 18.8284 18.8284C17.6569 20 15.7712 20 12 20C8.22876 20 6.34315 20 5.17157 18.8284C4 17.6569 4 15.7712 4 12C4 8.22876 4 6.34315 5.17157 5.17157C6.34315 4 8.22876 4 12 4" stroke="#141B34" stroke-width="1.5" stroke-linecap="round" stroke-linejoin="round"/>
<path d="M12 8.05005C11.5858 8.05005 11.25 8.38584 11.25 8.80005C11.25 9.21426 11.5858 9.55005 12 9.55005V8.80005V8.05005ZM14.45 11.9764C14.45 12.3906 14.7858 12.7264 15.2 12.7264C15.6142 12.7264 15.95 12.3906 15.95 11.9764H15.2H14.45ZM12 8.80005V9.55005H13.6V8.80005V8.05005H12V8.80005ZM15.2 10.3882H14.45V11.9764H15.2H15.95V10.3882H15.2ZM13.6 8.80005V9.55005C13.9982 9.55005 14.2219 9.55162 14.3786 9.57253C14.5143 9.59064 14.483 9.61022 14.4373 9.56493L14.9657 9.03263L15.494 8.50033C15.2141 8.22246 14.877 8.12575 14.577 8.08571C14.298 8.04848 13.9561 8.05005 13.6 8.05005V8.80005ZM15.2 10.3882H15.95C15.95 10.0352 15.9516 9.69449 15.9139 9.41622C15.8732 9.11579 15.7748 8.77897 15.494 8.50033L14.9657 9.03263L14.4373 9.56493C14.3909 9.51887 14.4096 9.4855 14.4275 9.61755C14.4484 9.77175 14.45 9.99251 14.45 10.3882H15.2ZM14.9657 9.03263L14.4 8.54015C12.1285 11.1492 9.54614 12.2036 7.53384 12.6115C6.52478 12.8161 5.65872 12.8578 5.0493 12.849C4.74494 12.8445 4.50574 12.8275 4.34615 12.8121C4.2664 12.8045 4.20665 12.7972 4.16873 12.7922C4.14977 12.7897 4.13628 12.7877 4.12848 12.7866C4.12459 12.786 4.12211 12.7856 4.12109 12.7855C4.12059 12.7854 4.12044 12.7853 4.12066 12.7854C4.12077 12.7854 4.12097 12.7854 4.12127 12.7855C4.12142 12.7855 4.12171 12.7856 4.12178 12.7856C4.12209 12.7856 4.12243 12.7857 4 13.5256C3.87757 14.2656 3.87795 14.2656 3.87836 14.2657C3.87853 14.2657 3.87896 14.2658 3.87929 14.2658C3.87996 14.2659 3.88073 14.2661 3.88159 14.2662C3.88331 14.2665 3.88541 14.2668 3.88788 14.2672C3.89282 14.268 3.89927 14.269 3.90718 14.2702C3.92301 14.2725 3.94473 14.2756 3.9721 14.2793C4.02684 14.2865 4.10425 14.2958 4.20246 14.3052C4.3988 14.3241 4.67881 14.3437 5.02748 14.3488C5.72412 14.3589 6.69948 14.3112 7.83185 14.0816C10.1024 13.6213 13.0029 12.4292 15.5313 9.52511L14.9657 9.03263Z" fill="#141B34"/>
</svg>
