<svg width="20" height="20" viewBox="0 0 20 20" fill="none" xmlns="http://www.w3.org/2000/svg">
<path d="M5.58194 16.0861C5.08173 15.7526 4.66489 15.3358 4.24805 14.9189" stroke="#07B5F0" stroke-width="1.5" stroke-linecap="round" stroke-linejoin="round"/>
<path d="M2.91406 7.49903C3.41427 6.16514 4.16458 4.99799 5.24837 4.16431" stroke="#07B5F0" stroke-width="1.5" stroke-linecap="round" stroke-linejoin="round"/>
<path d="M17.0028 3.99756V6.41523V6.41523" stroke="#07B5F0" stroke-width="1.5" stroke-linecap="round" stroke-linejoin="round"/>
<path d="M7.83203 2.8306C11.2501 1.83019 14.9183 3.33081 16.5857 6.41543" stroke="#07B5F0" stroke-width="1.5" stroke-linecap="round" stroke-linejoin="round"/>
<path d="M10.2495 12.6678L11.6668 10.0001H8.33203L9.74929 7.33228" stroke="#07B5F0" stroke-width="1.5" stroke-linecap="round" stroke-linejoin="round"/>
<path d="M8.16602 17.3366C8.74959 17.5034 9.41654 17.5867 10.0835 17.5867C14.2519 17.5034 17.5032 14.1686 17.5032 10.0002" stroke="#07B5F0" stroke-width="1.5" stroke-linecap="round" stroke-linejoin="round"/>
<path d="M14.5859 6.41528H17.0036" stroke="#07B5F0" stroke-width="1.5" stroke-linecap="round" stroke-linejoin="round"/>
<path d="M2.49748 10.0002C2.49748 10.8339 2.66422 11.6676 2.91432 12.5013" stroke="#07B5F0" stroke-width="1.5" stroke-linecap="round" stroke-linejoin="round"/>
</svg>
