<svg preserveAspectRatio="none" overflow="visible" style="display: block;" width="13.5" height="10.3333" viewBox="0 0 13.5 10.3333" fill="none" xmlns="http://www.w3.org/2000/svg">
<g id="Group">
<path id="Path" fill-rule="evenodd" clip-rule="evenodd" d="M11.5573 0.75H1.94266C1.284 0.75 0.75 1.33962 0.75 2.06688V2.06688C0.75 2.50339 0.945999 2.91193 1.27333 3.15705L5.24464 6.12869C6.15397 6.80884 7.34663 6.80884 8.25596 6.12869L12.2259 3.15779C12.5539 2.91266 12.7499 2.50413 12.7499 2.06762V2.06688C12.7499 1.33962 12.2159 0.75 11.5573 0.75V0.75Z" stroke="#07B5F0" stroke-width="1.5" stroke-linecap="round" stroke-linejoin="round"/>
<path id="Path_2" d="M4.08365 5.90275L1.417 9.21521" stroke="#07B5F0" stroke-width="1.5" stroke-linecap="round" stroke-linejoin="round"/>
<path id="Path_3" d="M9.417 5.90275L12.0836 9.21521" stroke="#07B5F0" stroke-width="1.5" stroke-linecap="round" stroke-linejoin="round"/>
<path id="Path_4" d="M0.750064 2.22231V8.13927C0.750064 8.93711 1.34673 9.58332 2.08339 9.58332H11.4167C12.1533 9.58332 12.75 8.93711 12.75 8.13927V2.22231" stroke="#07B5F0" stroke-width="1.5" stroke-linecap="round" stroke-linejoin="round"/>
</g>
</svg>
